<svg fill="none" height="48" viewBox="0 0 198 48" width="198" xmlns="http://www.w3.org/2000/svg"><path d="m27.3735 3.34375 10.1265 5.62501-.0007 11.24954m-10.1258-16.87455.002 11.24965m-.002-11.24965-25.8735 13.49965.00196 11.2497m35.99734-7.8748-10.1238-5.6249m10.1238 5.6249-25.8735 13.4996-10.12384-5.6248m25.87354-13.4997-25.87354 13.4997" stroke="#fff" stroke-linejoin="round" stroke-width="3"/><path d="m11.6265 44.9687-10.12649-5.625.0007-11.2495m10.12579 16.8745-.002-11.2496m.002 11.2496 25.8735-13.4996-.002-11.2497m-35.99729 7.8748 10.12379 5.6249m-10.12379-5.6249 25.87349-13.4996 10.1238 5.6248m-25.8735 13.4997 25.8735-13.4997" opacity=".5" stroke="#fff" stroke-linejoin="round" stroke-width="3"/><g fill="#fff"><path d="m65.065 26.9791c0 3.699-2.97 6.291-7.83 6.291-4.887 0-7.938-2.619-8.235-6.723h4.158c.108 2.133 1.485 3.51 3.996 3.51 2.079 0 3.564-.918 3.564-2.484 0-1.215-.945-1.944-2.592-2.268l-3.186-.621c-2.943-.567-5.211-2.16-5.211-5.373 0-3.456 3.051-5.94 7.236-5.94 4.347 0 7.533 2.538 7.803 6.588h-4.158c-.135-2.025-1.539-3.402-3.591-3.402-1.998 0-3.132 1.134-3.132 2.484 0 1.323 1.215 1.89 2.619 2.16l3.321.675c3.402.675 5.238 2.241 5.238 5.103z"/><path d="m75.7568 29.3551v3.267c-.918.459-1.782.648-2.889.648-2.97 0-4.833-1.701-4.833-4.941v-6.534h-2.916v-3.213h2.916v-4.266h3.726v4.266h4.131v3.213h-4.131v5.67c0 1.674.756 2.349 2.106 2.349.702 0 1.35-.162 1.89-.459z"/><path d="m85.6894 33.0001v-1.782c-.945 1.35-2.376 2.052-4.347 2.052-2.997 0-4.995-1.755-4.995-4.455 0-2.808 2.268-4.32 6.48-4.32.81 0 1.512.054 2.403.162v-.864c0-1.62-.918-2.565-2.484-2.565-1.62 0-2.592.945-2.727 2.565h-3.375c.216-3.321 2.619-5.481 6.102-5.481 3.78 0 5.994 2.079 5.994 5.616v9.072zm-5.805-4.293c0 1.215.864 1.971 2.268 1.971 1.917 0 3.078-1.053 3.078-2.727v-1.026c-.891-.135-1.512-.189-2.16-.189-2.133 0-3.186.675-3.186 1.971z"/><path d="m96.9695 33.2701c-4.158 0-7.02-3.078-7.02-7.479 0-4.32 2.97-7.479 7.02-7.479 3.7535 0 6.5345 2.538 6.9935 6.426h-3.942c-.1895-1.917-1.3505-3.105-3.0515-3.105-1.944 0-3.186 1.593-3.186 4.158 0 2.592 1.215 4.158 3.186 4.158 1.728 0 2.835-1.134 3.0515-3.105h3.942c-.432 3.969-3.132 6.426-6.9935 6.426z"/><path d="m109.045 33.0001h-3.753v-19.386h3.753v11.07l5.265-6.102h4.32l-5.967 6.912 6.669 7.506h-4.779l-5.508-6.696z"/><path d="m133.538 25.7911c0-4.266 2.511-7.479 6.399-7.479 1.728 0 3.186.756 4.266 2.133v-6.831h3.726v19.386h-3.429v-2.079c-1.134 1.512-2.7 2.349-4.563 2.349-3.888 0-6.399-3.267-6.399-7.479zm3.861 0c0 2.7 1.539 4.131 3.375 4.131 1.863 0 3.402-1.458 3.402-4.185s-1.566-4.104-3.402-4.104-3.375 1.404-3.375 4.158z"/><path d="m167.613 33.0001h-12.528v-19.386h4.104v15.687h8.424z"/><path d="m177.613 33.0001v-1.782c-.945 1.35-2.376 2.052-4.347 2.052-2.997 0-4.995-1.755-4.995-4.455 0-2.808 2.268-4.32 6.48-4.32.81 0 1.512.054 2.403.162v-.864c0-1.62-.918-2.565-2.484-2.565-1.62 0-2.592.945-2.727 2.565h-3.375c.216-3.321 2.619-5.481 6.102-5.481 3.78 0 5.994 2.079 5.994 5.616v9.072zm-5.805-4.293c0 1.215.864 1.971 2.268 1.971 1.917 0 3.078-1.053 3.078-2.727v-1.026c-.891-.135-1.512-.189-2.16-.189-2.133 0-3.186.675-3.186 1.971z"/><path d="m197.209 25.7911c0 4.212-2.511 7.479-6.399 7.479-1.863 0-3.429-.837-4.536-2.349v2.079h-3.456v-19.386h3.753v6.831c1.053-1.404 2.511-2.133 4.239-2.133 3.888 0 6.399 3.213 6.399 7.479zm-3.861 0c0-2.754-1.539-4.158-3.375-4.158-1.809 0-3.375 1.377-3.375 4.104s1.512 4.185 3.375 4.185c1.836 0 3.375-1.431 3.375-4.131z"/><path d="m126.19 33.2431c3.942 0 6.723-2.322 6.75-5.616h-3.645c-.108 1.647-1.296 2.646-3.159 2.646-1.944 0-3.078-.972-3.078-2.592 0-1.593 1.323-2.538 3.564-2.538h1.971v-2.97h-1.755c-1.836 0-2.943-.918-2.943-2.403 0-1.431.945-2.322 2.511-2.322 1.539 0 2.511.972 2.538 2.565h3.645c-.027-3.159-2.781-5.535-6.372-5.535-3.834 0-6.183 2.079-6.183 5.022 0 1.674.972 2.997 2.727 3.915-2.268.729-3.564 2.187-3.564 4.158 0 3.375 2.808 5.67 6.993 5.67z"/></g></svg>